<svg width="768" height="88" viewBox="0 0 768 88" fill="none" xmlns="http://www.w3.org/2000/svg">
<rect width="768" height="88" fill="white"/>
<rect x="84" y="28" width="2" height="32" rx="1" fill="#EAEAEA"/>
<rect x="454" y="24" width="40" height="40" rx="20" fill="#FF3E79"/>
<path fill-rule="evenodd" clip-rule="evenodd" d="M466.76 47.25L469.3 46.96C469.91 46.89 470.51 47.1 470.94 47.53L472.78 49.37C475.61 47.93 477.93 45.62 479.37 42.78L477.52 40.93C477.09 40.5 476.88 39.9 476.95 39.29L477.24 36.77C477.36 35.76 478.21 35 479.23 35H480.96C482.09 35 483.03 35.94 482.96 37.07C482.43 45.61 475.6 52.43 467.07 52.96C465.94 53.03 465 52.09 465 50.96V49.23C464.99 48.22 465.75 47.37 466.76 47.25Z" fill="white"/>
<rect x="648" y="24" width="40" height="40" rx="20" fill="#FF3E79"/>
<path d="M666.258 47.4583L666.667 47.0494L664.95 45.3322L664.541 45.7411L664.337 45.5367C664.01 45.1687 663.683 44.9643 663.356 45.0052C663.11 45.0052 662.906 45.1687 662.743 45.414C662.497 45.8229 662.62 46.2726 662.661 46.5588C662.661 46.6406 662.702 46.6815 662.702 46.7632C662.702 46.8859 662.702 47.0494 662.416 47.0903C662.007 47.213 661.475 47.3356 660.944 47.6218C660.208 48.0307 659.718 48.3987 659.431 48.7666C657.919 50.7291 658.001 52.4055 658.001 52.4872C658.001 52.6099 658.042 52.6917 658.123 52.7325L659.227 53.8773C659.309 53.9591 659.391 54 659.472 54C659.472 54 659.513 54 659.595 54C660.004 54 661.475 53.9182 663.192 52.569C663.56 52.2828 663.928 51.7922 664.337 51.0562C664.623 50.5656 664.786 50.0341 664.868 49.5844C664.95 49.2982 665.073 49.2982 665.195 49.2982C665.236 49.2982 665.318 49.339 665.4 49.339C665.563 49.3799 665.727 49.4208 665.931 49.4208C666.135 49.4208 666.34 49.3799 666.544 49.2573C666.789 49.0937 666.953 48.8893 666.994 48.644C667.035 48.3169 666.871 47.9898 666.503 47.7036L666.258 47.4583Z" fill="white"/>
<path d="M674.884 38.8784L676.019 38.326C676.061 38.2835 676.145 38.241 676.187 38.1986L677.91 35.8616C678.036 35.6916 678.036 35.4367 677.868 35.3092L676.691 34.1195C676.565 33.992 676.313 33.9495 676.145 34.077L673.833 35.8191C673.791 35.8616 673.749 35.9041 673.707 35.989L673.161 37.1363L669 41.2154L670.765 43L674.884 38.8784Z" fill="white"/>
<path d="M675.853 47.0448C674.864 46.0036 673.439 45.6288 672.094 46.0036L665.645 39.1733C665.724 38.7985 665.764 38.4653 665.764 38.0905C665.764 37.0493 665.368 36.0081 664.617 35.2167C663.588 34.0923 662.045 33.7174 660.621 34.2172C660.542 34.2588 660.423 34.3838 660.383 34.5504C660.383 34.6753 660.423 34.8003 660.502 34.9252L662.441 36.966C662.876 37.4241 662.876 38.2154 662.441 38.6735C662.005 39.1317 661.254 39.1317 660.819 38.6735L658.88 36.6328C658.761 36.5495 658.643 36.5078 658.484 36.5495C658.366 36.5495 658.247 36.6744 658.207 36.7994C657.733 38.2571 658.089 39.8813 659.117 40.9642C659.829 41.7555 660.858 42.172 661.887 42.172C662.203 42.172 662.559 42.1303 662.876 42.047L669.364 48.8773C669.008 50.2933 669.404 51.7927 670.353 52.8339C671.105 53.6252 672.055 54 673.083 54C673.518 54 673.914 53.9167 674.349 53.7918C674.468 53.7501 674.587 53.6252 674.626 53.5002C674.666 53.3753 674.626 53.2087 674.507 53.1254L672.569 51.0846C672.371 50.8764 672.213 50.5432 672.213 50.21C672.213 49.8768 672.332 49.5853 672.569 49.3354C672.806 49.0855 673.083 48.9606 673.4 48.9606C673.716 48.9606 673.993 49.0855 674.231 49.3354L676.169 51.3762C676.288 51.4595 676.407 51.5011 676.525 51.5011C676.644 51.4595 676.763 51.3762 676.802 51.2512C676.921 50.8348 677 50.3766 677 49.9185C677 48.8356 676.604 47.7944 675.853 47.0448Z" fill="white"/>
<rect x="510" y="24" width="40" height="40" rx="20" fill="#FF3E79"/>
<path fill-rule="evenodd" clip-rule="evenodd" d="M538 35H522C520.9 35 520.01 35.9 520.01 37L520 55L524 50H538C539.1 50 540 49.1 540 48V37C540 35.9 539.1 35 538 35ZM531 46H525C524.45 46 524 45.55 524 45C524 44.45 524.45 44 525 44H531C531.55 44 532 44.45 532 45C532 45.55 531.55 46 531 46ZM535 41H525C524.45 41 524 40.55 524 40C524 39.45 524.45 39 525 39H535C535.55 39 536 39.45 536 40C536 40.55 535.55 41 535 41Z" fill="white"/>
<mask id="mask0_1370_442" style="mask-type:luminance" maskUnits="userSpaceOnUse" x="520" y="35" width="20" height="20">
<path fill-rule="evenodd" clip-rule="evenodd" d="M538 35H522C520.9 35 520.01 35.9 520.01 37L520 55L524 50H538C539.1 50 540 49.1 540 48V37C540 35.9 539.1 35 538 35ZM531 46H525C524.45 46 524 45.55 524 45C524 44.45 524.45 44 525 44H531C531.55 44 532 44.45 532 45C532 45.55 531.55 46 531 46ZM535 41H525C524.45 41 524 40.55 524 40C524 39.45 524.45 39 525 39H535C535.55 39 536 39.45 536 40C536 40.55 535.55 41 535 41Z" fill="white"/>
</mask>
<g mask="url(#mask0_1370_442)">
</g>
<rect x="704" y="24" width="40" height="40" rx="20" fill="#FF3E79"/>
<path d="M731 34C731.552 34 732 34.4477 732 35V52.5C731.172 52.5 730.5 53.1716 730.5 54H729.5C729.5 53.1716 728.828 52.5 728 52.5C727.172 52.5 726.5 53.1716 726.5 54H725.5C725.5 53.1716 724.828 52.5 724 52.5C723.172 52.5 722.5 53.1716 722.5 54H721.5C721.5 53.1716 720.828 52.5 720 52.5C719.172 52.5 718.5 53.1716 718.5 54H717.5C717.5 53.1716 716.828 52.5 716 52.5V35C716 34.4477 716.448 34 717 34H731ZM723.854 37.8799C720.949 37.4201 718.495 39.826 718.859 42.7109C719.089 44.5322 720.528 46.0473 722.33 46.3828C723.471 46.5935 724.553 46.3439 725.416 45.7881L727.525 47.8975C727.899 48.2712 728.513 48.2711 728.896 47.8877C729.27 47.5139 729.27 46.9002 728.896 46.5264L726.787 44.4277C727.324 43.5746 727.583 42.5485 727.4 41.4365C727.103 39.644 725.656 38.1675 723.854 37.8799ZM723.059 39.7061C724.357 39.7061 725.412 40.7599 725.412 42.0586C725.412 43.3574 724.357 44.4121 723.059 44.4121C721.76 44.412 720.706 43.3573 720.706 42.0586C720.706 40.76 721.76 39.7062 723.059 39.7061Z" fill="white"/>
<rect x="626" y="28" width="2" height="32" rx="1" fill="#EAEAEA"/>
<rect x="24" y="24" width="40" height="40" rx="20" fill="#FF3E79"/>
<path d="M48 50C48.5523 50 49 50.4477 49 51C49 51.5523 48.5523 52 48 52H36C35.4477 52 35 51.5523 35 51C35 50.4477 35.4477 50 36 50H48ZM44 43C44.5523 43 45 43.4477 45 44C45 44.5523 44.5523 45 44 45H36C35.4477 45 35 44.5523 35 44C35 43.4477 35.4477 43 36 43H44ZM52 36C52.5523 36 53 36.4477 53 37C53 37.5523 52.5523 38 52 38H36C35.4477 38 35 37.5523 35 37C35 36.4477 35.4477 36 36 36H52Z" fill="white"/>
<path fill-rule="evenodd" clip-rule="evenodd" d="M142.57 18.5926C142.018 18.5926 141.57 19.0403 141.57 19.5926V23.8675C141.57 24.4198 142.018 24.8675 142.57 24.8675H178.897C189.024 24.8675 196.978 32.6642 196.978 42.757C196.978 43.0426 197.209 43.2741 197.495 43.2741H202.757C203.043 43.2741 203.274 43.0426 203.274 42.757C203.274 29.2678 192.432 18.5926 178.897 18.5926H142.57Z" fill="#6B7B84" stroke="#80949F" stroke-width="0.5"/>
<path fill-rule="evenodd" clip-rule="evenodd" d="M113.107 43.7124C113.107 43.4703 112.91 43.2741 112.668 43.2741H107.164C106.922 43.2741 106.726 43.4703 106.726 43.7124C106.726 57.3618 116.949 68.6312 130.169 69.3687L172.51 69.4065C173.063 69.407 173.511 68.9591 173.511 68.4065V63.8269C173.511 63.2746 173.063 62.8269 172.511 62.8269H131.626C121.39 62.7986 113.107 54.2832 113.107 43.7124Z" fill="#6B7B84" stroke="#80949F" stroke-width="0.5"/>
<path fill-rule="evenodd" clip-rule="evenodd" d="M134.141 57.7926C136.88 57.7926 139.162 57.2605 141.415 56.1657L141.57 56.0201V48.1857L140.727 49.2651C139.105 51.038 136.926 52.0139 134.461 52.0139C129.869 52.0139 125.257 49.046 125.257 43.374C125.257 39.0876 128.438 34.5322 134.299 34.5322C135.469 34.5322 138.313 34.8087 140.723 37.3682L141.57 38.4119V30.6129L141.422 30.4655C139.126 29.3149 136.784 28.7556 134.114 28.7556C129.547 28.7556 125.982 29.9579 123.144 32.4291C121.343 33.9779 118.341 37.4487 118.341 43.2924C118.341 47.6132 119.879 50.9877 123.167 53.9146C126.225 56.5964 129.616 57.7926 134.141 57.7926Z" fill="#6B7B84"/>
<path d="M134.141 57.7926C136.88 57.7926 139.162 57.2605 141.415 56.1657L141.57 56.0201V48.1857L140.727 49.2651C139.105 51.038 136.926 52.0139 134.461 52.0139C129.869 52.0139 125.257 49.046 125.257 43.374C125.257 39.0876 128.438 34.5322 134.299 34.5322C135.469 34.5322 138.313 34.8087 140.723 37.3682L141.57 38.4119V30.6129L141.422 30.4655C139.126 29.3149 136.784 28.7556 134.114 28.7556C129.547 28.7556 125.982 29.9579 123.144 32.4291C121.343 33.9779 118.341 37.4487 118.341 43.2924C118.341 47.6132 119.879 50.9877 123.167 53.9146C126.225 56.5964 129.616 57.7926 134.141 57.7926" stroke="#80949F" stroke-width="0.5"/>
<path fill-rule="evenodd" clip-rule="evenodd" d="M153.911 35.2889H155.275C156.527 35.2889 157.953 35.3572 159.033 36.093C159.56 36.4696 160.444 37.3413 160.444 38.9246C160.444 40.0947 159.927 41.1438 159.073 41.7984C157.978 42.5933 156.677 42.5477 155.631 42.5477H153.911V35.2889ZM156.977 47.818C160.208 47.818 162.738 46.886 164.494 45.13C166.655 42.9737 166.978 40.0075 166.978 38.4437C166.978 36.7704 166.581 33.5068 163.921 31.1437C161.741 29.233 159.414 28.7556 156.132 28.7556H147.378V57.7926H154.036V47.818H156.977Z" fill="#6B7B84"/>
<path d="M153.911 35.2889V35.0389H153.661V35.2889H153.911ZM159.033 36.093L159.178 35.8895L159.174 35.8864L159.033 36.093ZM159.073 41.7984L159.22 42.0008L159.225 41.9968L159.073 41.7984ZM153.911 42.5477H153.661V42.7977H153.911V42.5477ZM164.494 45.13L164.318 44.953L164.317 44.9532L164.494 45.13ZM163.921 31.1437L164.087 30.9568L164.086 30.9557L163.921 31.1437ZM147.378 28.7556V28.5056H147.128V28.7556H147.378ZM147.378 57.7926H147.128V58.0426H147.378V57.7926ZM154.036 57.7926V58.0426H154.286V57.7926H154.036ZM154.036 47.818V47.568H153.786V47.818H154.036ZM153.911 35.2889V35.5389H155.275V35.2889V35.0389H153.911V35.2889ZM155.275 35.2889V35.5389C156.533 35.5389 157.884 35.6124 158.892 36.2996L159.033 36.093L159.174 35.8864C158.023 35.1019 156.521 35.0389 155.275 35.0389V35.2889ZM159.033 36.093L158.888 36.2965C159.375 36.6448 160.194 37.4496 160.194 38.9246H160.444H160.694C160.694 37.233 159.745 36.2944 159.178 35.8896L159.033 36.093ZM160.444 38.9246H160.194C160.194 40.0206 159.711 40.9949 158.921 41.6L159.073 41.7984L159.225 41.9968C160.144 41.2927 160.694 40.1687 160.694 38.9246H160.444ZM159.073 41.7984L158.927 41.5961C157.909 42.3346 156.697 42.2977 155.631 42.2977V42.5477V42.7977C156.656 42.7977 158.048 42.8519 159.22 42.0007L159.073 41.7984ZM155.631 42.5477V42.2977H153.911V42.5477V42.7977H155.631V42.5477ZM153.911 42.5477H154.161V35.2889H153.911H153.661V42.5477H153.911ZM156.977 47.818V48.068C160.257 48.068 162.856 47.1209 164.671 45.3068L164.494 45.13L164.317 44.9532C162.619 46.651 160.16 47.568 156.977 47.568V47.818ZM164.494 45.13L164.671 45.307C166.903 43.0795 167.228 40.0289 167.228 38.4437H166.978H166.728C166.728 39.9861 166.407 42.868 164.318 44.953L164.494 45.13ZM166.978 38.4437H167.228C167.228 36.7424 166.826 33.39 164.087 30.9568L163.921 31.1437L163.755 31.3306C166.336 33.6235 166.728 36.7985 166.728 38.4437H166.978ZM163.921 31.1437L164.086 30.9557C161.84 28.9876 159.442 28.5056 156.132 28.5056V28.7556V29.0056C159.387 29.0056 161.641 29.4784 163.756 31.3317L163.921 31.1437ZM156.132 28.7556V28.5056H147.378V28.7556V29.0056H156.132V28.7556ZM147.378 28.7556H147.128V57.7926H147.378H147.628V28.7556H147.378ZM147.378 57.7926V58.0426H154.036V57.7926V57.5426H147.378V57.7926ZM154.036 57.7926H154.286V47.818H154.036H153.786V57.7926H154.036ZM154.036 47.818V48.068H156.977V47.818V47.568H154.036V47.818Z" fill="#80949F"/>
<path fill-rule="evenodd" clip-rule="evenodd" d="M186.953 42.4688C185.505 41.1862 183.484 40.4427 181.191 39.6715C179.557 39.1028 178.656 38.7896 178.056 38.2423C177.582 37.8401 177.371 37.4035 177.371 36.8264C177.371 35.5624 178.23 34.2115 180.641 34.2115C182.28 34.2115 183.652 34.9122 184.72 36.2932L185.143 36.8416L188.66 32.3658L188.339 32.0447C186.188 29.8926 183.355 28.7556 180.144 28.7556C173.665 28.7556 170.766 32.9701 170.766 37.147C170.766 39.3884 171.565 41.1962 173.136 42.5176C174.544 43.7236 176.259 44.3993 177.905 44.9508L178.091 45.0125C179.553 45.4956 181.064 45.9956 181.967 46.8036C182.595 47.3807 182.875 48.0078 182.875 48.8369C182.875 50.737 181.379 52.0139 179.152 52.0139C177.391 52.0139 175.073 51.151 173.847 48.7298L173.526 48.0955L169.156 52.1412L169.413 52.5058C170.808 54.4802 173.954 57.7926 179.359 57.7926C185.319 57.7926 189.482 53.961 189.482 48.4753C189.482 45.3376 188.105 43.4754 186.953 42.4688Z" fill="#6B7B84"/>
<path d="M186.953 42.4688C185.505 41.1862 183.484 40.4427 181.191 39.6715C179.557 39.1028 178.656 38.7896 178.056 38.2423C177.582 37.8401 177.371 37.4035 177.371 36.8264C177.371 35.5624 178.23 34.2115 180.641 34.2115C182.28 34.2115 183.652 34.9122 184.72 36.2932L185.143 36.8416L188.66 32.3658L188.339 32.0447C186.188 29.8926 183.355 28.7556 180.144 28.7556C173.665 28.7556 170.766 32.9701 170.766 37.147C170.766 39.3884 171.565 41.1962 173.136 42.5176C174.544 43.7236 176.259 44.3993 177.905 44.9508L178.091 45.0125C179.553 45.4956 181.064 45.9956 181.967 46.8036C182.595 47.3807 182.875 48.0078 182.875 48.8369C182.875 50.737 181.379 52.0139 179.152 52.0139C177.391 52.0139 175.073 51.151 173.847 48.7298L173.526 48.0955L169.156 52.1412L169.413 52.5058C170.808 54.4802 173.954 57.7926 179.359 57.7926C185.319 57.7926 189.482 53.961 189.482 48.4753C189.482 45.3376 188.105 43.4754 186.953 42.4688" stroke="#80949F" stroke-width="0.5"/>
<path fill-rule="evenodd" clip-rule="evenodd" d="M142.57 18.5926C142.018 18.5926 141.57 19.0403 141.57 19.5926V23.8675C141.57 24.4198 142.018 24.8675 142.57 24.8675H178.897C189.024 24.8675 196.978 32.6642 196.978 42.757C196.978 43.0426 197.209 43.2741 197.495 43.2741H202.757C203.043 43.2741 203.274 43.0426 203.274 42.757C203.274 29.2678 192.432 18.5926 178.897 18.5926H142.57Z" fill="#6B7B84" stroke="#80949F" stroke-width="0.5"/>
<path fill-rule="evenodd" clip-rule="evenodd" d="M113.107 43.7124C113.107 43.4703 112.91 43.2741 112.668 43.2741H107.164C106.922 43.2741 106.726 43.4703 106.726 43.7124C106.726 57.3618 116.949 68.6312 130.169 69.3687L172.51 69.4065C173.063 69.407 173.511 68.9591 173.511 68.4065V63.8269C173.511 63.2746 173.063 62.8269 172.511 62.8269H131.626C121.39 62.7986 113.107 54.2832 113.107 43.7124Z" fill="#6B7B84" stroke="#80949F" stroke-width="0.5"/>
<path fill-rule="evenodd" clip-rule="evenodd" d="M134.141 57.7926C136.88 57.7926 139.162 57.2605 141.415 56.1657L141.57 56.0201V48.1857L140.727 49.2651C139.105 51.038 136.926 52.0139 134.461 52.0139C129.869 52.0139 125.257 49.046 125.257 43.374C125.257 39.0876 128.438 34.5322 134.299 34.5322C135.469 34.5322 138.313 34.8087 140.723 37.3682L141.57 38.4119V30.6129L141.422 30.4655C139.126 29.3149 136.784 28.7556 134.114 28.7556C129.547 28.7556 125.982 29.9579 123.144 32.4291C121.343 33.9779 118.341 37.4487 118.341 43.2924C118.341 47.6132 119.879 50.9877 123.167 53.9146C126.225 56.5964 129.616 57.7926 134.141 57.7926Z" fill="#6B7B84"/>
<path d="M134.141 57.7926C136.88 57.7926 139.162 57.2605 141.415 56.1657L141.57 56.0201V48.1857L140.727 49.2651C139.105 51.038 136.926 52.0139 134.461 52.0139C129.869 52.0139 125.257 49.046 125.257 43.374C125.257 39.0876 128.438 34.5322 134.299 34.5322C135.469 34.5322 138.313 34.8087 140.723 37.3682L141.57 38.4119V30.6129L141.422 30.4655C139.126 29.3149 136.784 28.7556 134.114 28.7556C129.547 28.7556 125.982 29.9579 123.144 32.4291C121.343 33.9779 118.341 37.4487 118.341 43.2924C118.341 47.6132 119.879 50.9877 123.167 53.9146C126.225 56.5964 129.616 57.7926 134.141 57.7926" stroke="#80949F" stroke-width="0.5"/>
<path fill-rule="evenodd" clip-rule="evenodd" d="M153.911 35.2889H155.275C156.527 35.2889 157.953 35.3572 159.033 36.093C159.56 36.4696 160.444 37.3413 160.444 38.9246C160.444 40.0947 159.927 41.1438 159.073 41.7984C157.978 42.5933 156.677 42.5477 155.631 42.5477H153.911V35.2889ZM156.977 47.818C160.208 47.818 162.738 46.886 164.494 45.13C166.655 42.9737 166.978 40.0075 166.978 38.4437C166.978 36.7704 166.581 33.5068 163.921 31.1437C161.741 29.233 159.414 28.7556 156.132 28.7556H147.378V57.7926H154.036V47.818H156.977Z" fill="#6B7B84"/>
<path d="M153.911 35.2889V35.0389H153.661V35.2889H153.911ZM159.033 36.093L159.178 35.8895L159.174 35.8864L159.033 36.093ZM159.073 41.7984L159.22 42.0008L159.225 41.9968L159.073 41.7984ZM153.911 42.5477H153.661V42.7977H153.911V42.5477ZM164.494 45.13L164.318 44.953L164.317 44.9532L164.494 45.13ZM163.921 31.1437L164.087 30.9568L164.086 30.9557L163.921 31.1437ZM147.378 28.7556V28.5056H147.128V28.7556H147.378ZM147.378 57.7926H147.128V58.0426H147.378V57.7926ZM154.036 57.7926V58.0426H154.286V57.7926H154.036ZM154.036 47.818V47.568H153.786V47.818H154.036ZM153.911 35.2889V35.5389H155.275V35.2889V35.0389H153.911V35.2889ZM155.275 35.2889V35.5389C156.533 35.5389 157.884 35.6124 158.892 36.2996L159.033 36.093L159.174 35.8864C158.023 35.1019 156.521 35.0389 155.275 35.0389V35.2889ZM159.033 36.093L158.888 36.2965C159.375 36.6448 160.194 37.4496 160.194 38.9246H160.444H160.694C160.694 37.233 159.745 36.2944 159.178 35.8896L159.033 36.093ZM160.444 38.9246H160.194C160.194 40.0206 159.711 40.9949 158.921 41.6L159.073 41.7984L159.225 41.9968C160.144 41.2927 160.694 40.1687 160.694 38.9246H160.444ZM159.073 41.7984L158.927 41.5961C157.909 42.3346 156.697 42.2977 155.631 42.2977V42.5477V42.7977C156.656 42.7977 158.048 42.8519 159.22 42.0007L159.073 41.7984ZM155.631 42.5477V42.2977H153.911V42.5477V42.7977H155.631V42.5477ZM153.911 42.5477H154.161V35.2889H153.911H153.661V42.5477H153.911ZM156.977 47.818V48.068C160.257 48.068 162.856 47.1209 164.671 45.3068L164.494 45.13L164.317 44.9532C162.619 46.651 160.16 47.568 156.977 47.568V47.818ZM164.494 45.13L164.671 45.307C166.903 43.0795 167.228 40.0289 167.228 38.4437H166.978H166.728C166.728 39.9861 166.407 42.868 164.318 44.953L164.494 45.13ZM166.978 38.4437H167.228C167.228 36.7424 166.826 33.39 164.087 30.9568L163.921 31.1437L163.755 31.3306C166.336 33.6235 166.728 36.7985 166.728 38.4437H166.978ZM163.921 31.1437L164.086 30.9557C161.84 28.9876 159.442 28.5056 156.132 28.5056V28.7556V29.0056C159.387 29.0056 161.641 29.4784 163.756 31.3317L163.921 31.1437ZM156.132 28.7556V28.5056H147.378V28.7556V29.0056H156.132V28.7556ZM147.378 28.7556H147.128V57.7926H147.378H147.628V28.7556H147.378ZM147.378 57.7926V58.0426H154.036V57.7926V57.5426H147.378V57.7926ZM154.036 57.7926H154.286V47.818H154.036H153.786V57.7926H154.036ZM154.036 47.818V48.068H156.977V47.818V47.568H154.036V47.818Z" fill="#80949F"/>
<path fill-rule="evenodd" clip-rule="evenodd" d="M186.953 42.4688C185.505 41.1862 183.484 40.4427 181.191 39.6715C179.557 39.1028 178.656 38.7896 178.056 38.2423C177.582 37.8401 177.371 37.4035 177.371 36.8264C177.371 35.5624 178.23 34.2115 180.641 34.2115C182.28 34.2115 183.652 34.9122 184.72 36.2932L185.143 36.8416L188.66 32.3658L188.339 32.0447C186.188 29.8926 183.355 28.7556 180.144 28.7556C173.665 28.7556 170.766 32.9701 170.766 37.147C170.766 39.3884 171.565 41.1962 173.136 42.5176C174.544 43.7236 176.259 44.3993 177.905 44.9508L178.091 45.0125C179.553 45.4956 181.064 45.9956 181.967 46.8036C182.595 47.3807 182.875 48.0078 182.875 48.8369C182.875 50.737 181.379 52.0139 179.152 52.0139C177.391 52.0139 175.073 51.151 173.847 48.7298L173.526 48.0955L169.156 52.1412L169.413 52.5058C170.808 54.4802 173.954 57.7926 179.359 57.7926C185.319 57.7926 189.482 53.961 189.482 48.4753C189.482 45.3376 188.105 43.4754 186.953 42.4688Z" fill="#6B7B84"/>
<path d="M186.953 42.4688C185.505 41.1862 183.484 40.4427 181.191 39.6715C179.557 39.1028 178.656 38.7896 178.056 38.2423C177.582 37.8401 177.371 37.4035 177.371 36.8264C177.371 35.5624 178.23 34.2115 180.641 34.2115C182.28 34.2115 183.652 34.9122 184.72 36.2932L185.143 36.8416L188.66 32.3658L188.339 32.0447C186.188 29.8926 183.355 28.7556 180.144 28.7556C173.665 28.7556 170.766 32.9701 170.766 37.147C170.766 39.3884 171.565 41.1962 173.136 42.5176C174.544 43.7236 176.259 44.3993 177.905 44.9508L178.091 45.0125C179.553 45.4956 181.064 45.9956 181.967 46.8036C182.595 47.3807 182.875 48.0078 182.875 48.8369C182.875 50.737 181.379 52.0139 179.152 52.0139C177.391 52.0139 175.073 51.151 173.847 48.7298L173.526 48.0955L169.156 52.1412L169.413 52.5058C170.808 54.4802 173.954 57.7926 179.359 57.7926C185.319 57.7926 189.482 53.961 189.482 48.4753C189.482 45.3376 188.105 43.4754 186.953 42.4688" stroke="#80949F" stroke-width="0.5"/>
<rect y="87" width="768" height="1" fill="#D9FFF5"/>
<rect x="566" y="24" width="40" height="40" rx="20" fill="#FF3E79"/>
<path d="M586.5 43C588.985 43 591 40.9853 591 38.5C591 36.0147 588.985 34 586.5 34C584.015 34 582 36.0147 582 38.5C582 40.9853 584.015 43 586.5 43Z" fill="white"/>
<path d="M576.017 50.6118C575.887 51.3412 576.535 52 577.339 52H594.66C595.49 52 596.113 51.3412 595.983 50.6118C595.231 46.4 591.056 44 586 44C580.943 44 576.769 46.4 576.017 50.6118Z" fill="white"/>
</svg>
